<?xml version="1.0" encoding="utf-8"?>
<!-- Generator: Adobe Illustrator 15.1.0, SVG Export Plug-In . SVG Version: 6.00 Build 0)  -->
<!DOCTYPE svg PUBLIC "-//W3C//DTD SVG 1.1//EN" "http://www.w3.org/Graphics/SVG/1.1/DTD/svg11.dtd">
<svg version="1.1" id="Capa_1" xmlns="http://www.w3.org/2000/svg" xmlns:xlink="http://www.w3.org/1999/xlink" x="0px" y="0px"
	 width="2437.799px" height="6122.84px" viewBox="0 0 2437.799 6122.84" enable-background="new 0 0 2437.799 6122.84"
	 xml:space="preserve">
<path d="M2379.715,4202.398l-683.896-711.236c174.438-174.943,282.506-416.118,282.506-682.102
	c0-532.978-433.563-966.541-966.541-966.541c-532.978,0-966.54,433.563-966.54,966.541c0,532.979,433.563,966.541,966.54,966.541
	c233.949,0,448.659-83.629,616.009-222.396l685.554,712.984c9.021,9.436,21.08,14.131,33.185,14.131
	c11.507,0,22.967-4.281,31.896-12.842C2396.744,4249.851,2397.297,4220.717,2379.715,4202.398z M1011.783,3683.55
	c-482.211,0-874.488-392.277-874.488-874.489s392.277-874.489,874.488-874.489c482.212,0,874.49,392.277,874.49,874.489
	S1493.949,3683.55,1011.783,3683.55z"/>
</svg>
