<?xml version="1.0" encoding="UTF-8"?>
<svg width="31px" height="27px" viewBox="0 0 31 27" version="1.1" xmlns="http://www.w3.org/2000/svg" xmlns:xlink="http://www.w3.org/1999/xlink">
    <!-- Generator: Sketch 43.2 (39069) - http://www.bohemiancoding.com/sketch -->
    <title>Page 1</title>
    <desc>Created with Sketch.</desc>
    <defs></defs>
    <g  stroke="none" stroke-width="1" fill="none" fill-rule="evenodd">
        <g transform="translate(-952.000000, -2763.000000)" fill-rule="nonzero" fill="#6C62A6">
            <g  transform="translate(327.000000, 2635.000000)">
                <g >
                    <path d="M629.625,149.142857 C627.35676,149.142857 625.5,147.313537 625.5,145.071429 L625.5,132.571429 C625.5,130.32932 627.35676,128.5 629.625,128.5 L651.375,128.5 C653.64324,128.5 655.5,130.32932 655.5,132.571429 L655.5,145.071429 C655.5,147.313537 653.64324,149.142857 651.375,149.142857 L644.625,149.142857 L644.625,154.991149 L636.710312,149.142857 L629.625,149.142857 Z M643.625,148.142857 L651.375,148.142857 C653.09426,148.142857 654.5,146.757892 654.5,145.071429 L654.5,132.571429 C654.5,130.884965 653.09426,129.5 651.375,129.5 L629.625,129.5 C627.90574,129.5 626.5,130.884965 626.5,132.571429 L626.5,145.071429 C626.5,146.757892 627.90574,148.142857 629.625,148.142857 L637.039688,148.142857 L643.625,153.008851 L643.625,148.142857 Z" id="Page-1"></path>
                </g>
            </g>
        </g>
    </g>
</svg>