<?xml version="1.0" encoding="UTF-8"?>
<svg width="52px" height="52px" viewBox="0 0 52 52" version="1.1" xmlns="http://www.w3.org/2000/svg" xmlns:xlink="http://www.w3.org/1999/xlink">
    <!-- Generator: Sketch 43.2 (39069) - http://www.bohemiancoding.com/sketch -->
    <title>Page 1</title>
    <desc>Created with Sketch.</desc>
    <defs></defs>
    <g id="Page-1" stroke="none" stroke-width="1" fill="none" fill-rule="evenodd">
        <g id="Home_v2-Copy" transform="translate(-117.000000, -767.000000)" fill="#FFFFFF">
            <g id="Hoe-werkt-het-Copy-2" transform="translate(117.000000, 761.000000)">
                <g id="01" transform="translate(0.000000, 4.000000)">
                    <g id="Page-1" transform="translate(0.000000, 2.000000)">
                        <path d="M10.0127592,28.9473684 C8.52503933,28.9473684 7.30781499,30.1645928 7.30781499,31.6523126 C7.30781499,33.1400322 8.52503933,34.3572568 10.0127592,34.3572568 C11.500479,34.3572568 12.7177033,33.1400322 12.7177033,31.6523126 C12.7177033,30.1645928 11.500479,28.9473684 10.0127592,28.9473684 Z" id="Fill-2-Copy"></path>
                        <path d="M10.0127592,39.7671451 C8.52503933,39.7671451 7.30781499,40.9843719 7.30781499,42.4720893 C7.30781499,43.9598064 8.52503933,45.1770335 10.0127592,45.1770335 C11.500479,45.1770335 12.7177033,43.9598064 12.7177033,42.4720893 C12.7177033,40.9843719 11.500479,39.7671451 10.0127592,39.7671451 Z" id="Fill-2-Copy"></path>
                        <path d="M10.0127592,18.1275917 C8.52503933,18.1275917 7.30781499,19.344816 7.30781499,20.8325359 C7.30781499,22.3202555 8.52503933,23.5374801 10.0127592,23.5374801 C11.500479,23.5374801 12.7177033,22.3202555 12.7177033,20.8325359 C12.7177033,19.344816 11.500479,18.1275917 10.0127592,18.1275917 Z" id="Fill-2-Copy"></path>
                        <path d="M1.89792663,19.4800638 C1.14054232,19.4800638 0.545454545,20.0751522 0.545454545,20.8325359 C0.545454545,21.5899194 1.14054232,22.185008 1.89792663,22.185008 C2.65531092,22.185008 3.25039872,21.5899194 3.25039872,20.8325359 C3.25039872,20.0751522 2.65531092,19.4800638 1.89792663,19.4800638 Z" id="Fill-2-Copy"></path>
                        <path d="M10.0127592,7.30781499 C8.52503933,7.30781499 7.30781499,8.52503933 7.30781499,10.0127592 C7.30781499,11.500479 8.52503933,12.7177033 10.0127592,12.7177033 C11.500479,12.7177033 12.7177033,11.500479 12.7177033,10.0127592 C12.7177033,8.52503933 11.500479,7.30781499 10.0127592,7.30781499 Z" id="Fill-2-Copy"></path>
                        <path d="M50.5869219,22.185008 C51.3443078,22.185008 51.9393939,21.5899194 51.9393939,20.8325359 C51.9393939,20.0751522 51.3443078,19.4800638 50.5869219,19.4800638 C49.8295356,19.4800638 49.2344498,20.0751522 49.2344498,20.8325359 C49.2344498,21.5899194 49.8295356,22.185008 50.5869219,22.185008 Z" id="Fill-2-Copy"></path>
                        <path d="M31.6523126,12.7177033 C33.1400322,12.7177033 34.3572568,11.500479 34.3572568,10.0127592 C34.3572568,8.52503933 33.1400322,7.30781499 31.6523126,7.30781499 C30.1645928,7.30781499 28.9473684,8.52503933 28.9473684,10.0127592 C28.9473684,11.500479 30.1645928,12.7177033 31.6523126,12.7177033 Z" id="Fill-2-Copy"></path>
                        <path d="M31.6523126,3.25039872 C32.4096962,3.25039872 33.0047847,2.65531092 33.0047847,1.89792663 C33.0047847,1.14054232 32.4096962,0.545454545 31.6523126,0.545454545 C30.8949288,0.545454545 30.2998405,1.14054232 30.2998405,1.89792663 C30.2998405,2.65531092 30.8949288,3.25039872 31.6523126,3.25039872 Z" id="Fill-2-Copy"></path>
                        <path d="M1.89792663,30.2998405 C1.14054232,30.2998405 0.545454545,30.8949288 0.545454545,31.6523126 C0.545454545,32.4096962 1.14054232,33.0047847 1.89792663,33.0047847 C2.65531092,33.0047847 3.25039872,32.4096962 3.25039872,31.6523126 C3.25039872,30.8949288 2.65531092,30.2998405 1.89792663,30.2998405 Z" id="Fill-2-Copy"></path>
                        <path d="M20.8325359,49.2344498 C20.0751522,49.2344498 19.4800638,49.8295356 19.4800638,50.5869219 C19.4800638,51.3443078 20.0751522,51.9393939 20.8325359,51.9393939 C21.5899194,51.9393939 22.185008,51.3443078 22.185008,50.5869219 C22.185008,49.8295356 21.5899194,49.2344498 20.8325359,49.2344498 Z" id="Fill-2-Copy"></path>
                        <path d="M20.8325359,3.25039872 C21.5899194,3.25039872 22.185008,2.65531092 22.185008,1.89792663 C22.185008,1.14054232 21.5899194,0.545454545 20.8325359,0.545454545 C20.0751522,0.545454545 19.4800638,1.14054232 19.4800638,1.89792663 C19.4800638,2.65531092 20.0751522,3.25039872 20.8325359,3.25039872 Z" id="Fill-2-Copy"></path>
                        <path d="M20.8325359,12.7177033 C22.3202555,12.7177033 23.5374801,11.500479 23.5374801,10.0127592 C23.5374801,8.52503933 22.3202555,7.30781499 20.8325359,7.30781499 C19.344816,7.30781499 18.1275917,8.52503933 18.1275917,10.0127592 C18.1275917,11.500479 19.344816,12.7177033 20.8325359,12.7177033 Z" id="Fill-2-Copy"></path>
                        <path d="M20.8325359,27.5948963 C18.5874324,27.5948963 16.7751196,29.4072089 16.7751196,31.6523126 C16.7751196,33.897416 18.5874324,35.7097289 20.8325359,35.7097289 C23.0776393,35.7097289 24.8899522,33.897416 24.8899522,31.6523126 C24.8899522,29.4072089 23.0776393,27.5948963 20.8325359,27.5948963 Z" id="Fill-2-Copy"></path>
                        <path d="M42.4720893,28.9473684 C40.9843719,28.9473684 39.7671451,30.1645928 39.7671451,31.6523126 C39.7671451,33.1400322 40.9843719,34.3572568 42.4720893,34.3572568 C43.9598064,34.3572568 45.1770335,33.1400322 45.1770335,31.6523126 C45.1770335,30.1645928 43.9598064,28.9473684 42.4720893,28.9473684 Z" id="Fill-2-Copy"></path>
                        <path d="M42.4720893,39.7671451 C40.9843719,39.7671451 39.7671451,40.9843719 39.7671451,42.4720893 C39.7671451,43.9598064 40.9843719,45.1770335 42.4720893,45.1770335 C43.9598064,45.1770335 45.1770335,43.9598064 45.1770335,42.4720893 C45.1770335,40.9843719 43.9598064,39.7671451 42.4720893,39.7671451 Z" id="Fill-2-Copy"></path>
                        <path d="M42.4720893,18.1275917 C40.9843719,18.1275917 39.7671451,19.344816 39.7671451,20.8325359 C39.7671451,22.3202555 40.9843719,23.5374801 42.4720893,23.5374801 C43.9598064,23.5374801 45.1770335,22.3202555 45.1770335,20.8325359 C45.1770335,19.344816 43.9598064,18.1275917 42.4720893,18.1275917 Z" id="Fill-2-Copy"></path>
                        <path d="M42.4720893,7.30781499 C40.9843719,7.30781499 39.7671451,8.52503933 39.7671451,10.0127592 C39.7671451,11.500479 40.9843719,12.7177033 42.4720893,12.7177033 C43.9598064,12.7177033 45.1770335,11.500479 45.1770335,10.0127592 C45.1770335,8.52503933 43.9598064,7.30781499 42.4720893,7.30781499 Z" id="Fill-2-Copy"></path>
                        <path d="M50.5869219,30.2998405 C49.8295356,30.2998405 49.2344498,30.8949288 49.2344498,31.6523126 C49.2344498,32.4096962 49.8295356,33.0047847 50.5869219,33.0047847 C51.3443078,33.0047847 51.9393939,32.4096962 51.9393939,31.6523126 C51.9393939,30.8949288 51.3443078,30.2998405 50.5869219,30.2998405 Z" id="Fill-2-Copy"></path>
                        <path d="M31.6523126,39.7671451 C30.1645928,39.7671451 28.9473684,40.9843719 28.9473684,42.4720893 C28.9473684,43.9598064 30.1645928,45.1770335 31.6523126,45.1770335 C33.1400322,45.1770335 34.3572568,43.9598064 34.3572568,42.4720893 C34.3572568,40.9843719 33.1400322,39.7671451 31.6523126,39.7671451 Z" id="Fill-2-Copy"></path>
                        <path d="M31.6523126,49.2344498 C30.8949288,49.2344498 30.2998405,49.8295356 30.2998405,50.5869219 C30.2998405,51.3443078 30.8949288,51.9393939 31.6523126,51.9393939 C32.4096962,51.9393939 33.0047847,51.3443078 33.0047847,50.5869219 C33.0047847,49.8295356 32.4096962,49.2344498 31.6523126,49.2344498 Z" id="Fill-2-Copy"></path>
                        <path d="M20.8325359,16.7751196 C18.5874324,16.7751196 16.7751196,18.5874324 16.7751196,20.8325359 C16.7751196,23.0776393 18.5874324,24.8899522 20.8325359,24.8899522 C23.0776393,24.8899522 24.8899522,23.0776393 24.8899522,20.8325359 C24.8899522,18.5874324 23.0776393,16.7751196 20.8325359,16.7751196 Z" id="Fill-2-Copy"></path>
                        <path d="M20.8325359,39.7671451 C19.344816,39.7671451 18.1275917,40.9843719 18.1275917,42.4720893 C18.1275917,43.9598064 19.344816,45.1770335 20.8325359,45.1770335 C22.3202555,45.1770335 23.5374801,43.9598064 23.5374801,42.4720893 C23.5374801,40.9843719 22.3202555,39.7671451 20.8325359,39.7671451 Z" id="Fill-2-Copy"></path>
                        <path d="M31.6523126,27.5948963 C29.4072089,27.5948963 27.5948963,29.4072089 27.5948963,31.6523126 C27.5948963,33.897416 29.4072089,35.7097289 31.6523126,35.7097289 C33.897416,35.7097289 35.7097289,33.897416 35.7097289,31.6523126 C35.7097289,29.4072089 33.897416,27.5948963 31.6523126,27.5948963 Z" id="Fill-2-Copy"></path>
                        <path d="M31.6523126,16.7751196 C29.4072089,16.7751196 27.5948963,18.5874324 27.5948963,20.8325359 C27.5948963,23.0776393 29.4072089,24.8899522 31.6523126,24.8899522 C33.897416,24.8899522 35.7097289,23.0776393 35.7097289,20.8325359 C35.7097289,18.5874324 33.897416,16.7751196 31.6523126,16.7751196 Z" id="Fill-2-Copy"></path>
                    </g>
                </g>
            </g>
        </g>
    </g>
</svg>