<?xml version="1.0" encoding="UTF-8"?>
<svg width="29px" height="32px" viewBox="0 0 29 32" version="1.1" xmlns="http://www.w3.org/2000/svg" xmlns:xlink="http://www.w3.org/1999/xlink">
    <!-- Generator: Sketch 43.2 (39069) - http://www.bohemiancoding.com/sketch -->
    <title>Fill 1</title>
    <desc>Created with Sketch.</desc>
    <defs></defs>
    <g stroke="none" stroke-width="1" fill="none" fill-rule="evenodd">
        <g transform="translate(-1045.000000, -2755.000000)" fill-rule="nonzero" fill="#6C62A6">
            <g transform="translate(327.000000, 2635.000000)">
                <g>
                    <path d="M723.831304,131.842084 C723.790034,131.887989 723.771259,131.920636 723.849552,132.135599 C723.938707,132.380384 724.005886,132.397942 724.0625,132.397942 L724.0625,131.397942 C724.440102,131.397942 724.666719,131.45717 724.78917,131.793373 C724.898342,132.093117 724.806045,132.253605 724.574958,132.510647 C724.702257,132.369051 723.965409,133.131727 723.743315,133.416866 C723.188586,134.129059 722.875,134.91661 722.875,135.879092 L722.875,146.633529 C722.875,147.541124 723.185528,148.286765 723.736943,148.965575 C723.95795,149.237641 724.682957,149.958831 724.568708,149.836385 C724.807367,150.092165 724.902648,150.252023 724.787231,150.558242 C724.662035,150.890405 724.441203,150.946267 724.0625,150.946267 C721.142419,150.946267 718.5,149.303163 718.5,145.346642 L718.5,137.165642 C718.5,133.207623 721.245355,131.397942 724.0625,131.397942 L724.0625,132.397942 C723.788355,132.397942 723.515588,132.418286 723.247666,132.459553 C723.564071,132.107293 723.947518,131.712816 723.831304,131.842084 Z M719.5,137.165642 L719.5,145.346642 C719.5,148.241378 721.156207,149.610124 723.222053,149.890928 C723.118663,149.779646 723.024647,149.674729 722.960763,149.596086 C722.274362,148.751103 721.875,147.792154 721.875,146.633529 L721.875,135.879092 C721.875,134.674984 722.271573,133.679017 722.954392,132.802373 C723.02444,132.712441 723.131538,132.58884 723.247666,132.459553 C721.237448,132.769173 719.5,134.256584 719.5,137.165642 Z M739.700277,131.572278 C739.884111,131.605884 741.786924,131.902072 742.419707,132.02346 C745.061921,132.530322 746.5,133.223671 746.5,134.605367 C746.5,135.903345 745.59083,140.269565 744.518652,143.990792 C743.083961,148.970197 741.752487,151.875067 740.345525,151.875067 C733.483969,151.875067 725.25,149.46901 725.25,146.957867 L725.25,135.415029 C725.25,134.456517 726.196166,133.358618 727.938153,131.970553 C728.458441,131.555973 729.044039,131.122124 729.704211,130.657742 C730.240302,130.280642 730.792101,129.906193 731.480164,129.448914 C731.439003,129.47627 732.674282,128.658835 732.947355,128.474627 C734.065367,127.720425 735.162154,126.662182 736.341241,125.270705 C737.031789,124.455769 738.93882,121.983334 739.090713,121.79854 C739.51491,121.28246 739.834399,120.948642 740.120541,120.74528 C740.577561,120.420475 741.063663,120.384206 741.404399,120.806762 C742.066943,121.628678 742.457158,122.52228 742.594091,123.473628 C742.863698,125.346739 742.182314,127.254411 740.819482,129.35312 C740.608979,129.677287 740.388889,129.996163 740.134866,130.349448 C739.99475,130.544315 739.576582,131.114962 739.556481,131.142664 C739.452514,131.285943 739.372143,131.39954 739.309542,131.492377 C739.416601,131.517638 739.546334,131.544137 739.700277,131.572278 Z M738.187536,131.911147 C738.052062,131.545838 738.150921,131.376983 738.747113,130.555363 C738.769667,130.524281 739.186031,129.956094 739.32296,129.76566 C739.568415,129.424291 739.779847,129.117959 739.980796,128.808504 C741.223765,126.894382 741.831322,125.193401 741.604291,123.616095 C741.492992,122.842837 741.175918,122.116731 740.625903,121.434411 C740.687894,121.511288 740.778444,121.504532 740.699844,121.560393 C740.506108,121.698082 740.234352,121.982025 739.863238,122.433524 C739.726429,122.599966 737.813179,125.080465 737.104172,125.917185 C735.870968,127.372527 734.712998,128.489803 733.506591,129.303635 C733.229192,129.490762 731.988781,130.311592 732.033666,130.281762 C731.352324,130.734575 730.807247,131.104461 730.279553,131.475655 C729.634548,131.929368 729.064451,132.351732 728.561334,132.752631 C727.075058,133.936938 726.25,134.894307 726.25,135.415029 L726.25,146.957867 C726.25,148.587497 734.078484,150.875067 740.345525,150.875067 C741.799616,150.875067 745.5,138.032086 745.5,134.605367 C745.5,133.962572 744.363332,133.414544 742.23131,133.005553 C741.620267,132.888335 739.723259,132.593051 739.52045,132.555977 C738.636844,132.394448 738.329892,132.295225 738.187504,131.911061 L738.656337,131.737292 L738.187536,131.911147 Z M739.10155,131.435937 C739.073808,131.42697 739.074767,131.427532 739.125171,131.563523 L738.656337,131.737292 L739.125139,131.563437 C739.177708,131.705192 739.180766,131.696385 739.19439,131.673115 C739.224099,131.62237 739.261612,131.563459 739.309542,131.492377 C739.226952,131.47289 739.157857,131.454138 739.10155,131.435937 Z" id="Upvote-Fill-1"></path>
                </g>
            </g>
        </g>
    </g>
</svg>