<?xml version="1.0" encoding="UTF-8" standalone="no"?>
<svg xmlns:rdf="http://www.w3.org/1999/02/22-rdf-syntax-ns#" xmlns="http://www.w3.org/2000/svg" height="7.0556mm" width="7.0556mm" version="1.1"
xmlns:cc="http://creativecommons.org/ns#" xmlns:dc="http://purl.org/dc/elements/1.1/" viewBox="0 0 24.999999 24.999999">
<metadata>  <rdf:RDF>   <cc:Work rdf:about="">    <dc:format>image/svg+xml</dc:format>    <dc:type rdf:resource="http://purl.org/dc/dcmitype/StillImage"/>
<dc:title/>   </cc:Work>  </rdf:RDF> </metadata> <g transform="translate(-151.39 -117.97)">  <g transform="translate(.39250 .85750)">
<path style="color-rendering:auto;text-decoration-color:#000000;color:#000000;shape-rendering:auto;solid-color:#000000;text-decoration-line:none;fill:#191919;mix-blend-mode:normal;block-progression:tb;text-indent:0;image-rendering:auto;white-space:normal;text-decoration-style:solid;isolation:auto;text-transform:none" d="m163.5 123.27c-3.4931 0-6.3379 2.8448-6.3379 6.3379s2.8448 6.3398 6.3379 6.3398 6.3379-2.8467 6.3379-6.3398-2.8448-6.3379-6.3379-6.3379zm0 1.3008c2.7905 0 5.0391 2.2466 5.0391 5.0371s-2.2485 5.0391-5.0391 5.0391c-2.7905 0-5.0391-2.2485-5.0391-5.0391 0-2.7905 2.2485-5.0371 5.0391-5.0371z"/><circle cx="163.5" cy="129.61" r="1.9312" style="fill:#191919"/>
<path style="color-rendering:auto;text-decoration-color:#000000;color:#000000;shape-rendering:auto;solid-color:#000000;text-decoration-line:none;fill:#191919;fill-rule:evenodd;mix-blend-mode:normal;block-progression:tb;text-indent:0;image-rendering:auto;white-space:normal;text-decoration-style:solid;isolation:auto;text-transform:none" d="m162.85 120.57v3.3555h1.3008v-3.3555h-1.3008z"/>   <path style="color-rendering:auto;text-decoration-color:#000000;color:#000000;shape-rendering:auto;solid-color:#000000;text-decoration-line:none;fill:#191919;fill-rule:evenodd;mix-blend-mode:normal;block-progression:tb;text-indent:0;image-rendering:auto;white-space:normal;text-decoration-style:solid;isolation:auto;text-transform:none" d="m162.85 135.3v3.3555h1.3008v-3.3555h-1.3008z"/>   <path style="color-rendering:auto;text-decoration-color:#000000;color:#000000;shape-rendering:auto;solid-color:#000000;text-decoration-line:none;fill:#191919;fill-rule:evenodd;mix-blend-mode:normal;block-progression:tb;text-indent:0;image-rendering:auto;white-space:normal;text-decoration-style:solid;isolation:auto;text-transform:none" d="m154.46 128.96v1.2988h3.3535v-1.2988h-3.3535z"/>
<path style="color-rendering:auto;text-decoration-color:#000000;color:#000000;shape-rendering:auto;solid-color:#000000;text-decoration-line:none;fill:#191919;fill-rule:evenodd;mix-blend-mode:normal;block-progression:tb;text-indent:0;image-rendering:auto;white-space:normal;text-decoration-style:solid;isolation:auto;text-transform:none" d="m169.19 128.96v1.2988h3.3535v-1.2988h-3.3535z"/>  </g> </g></svg>
