<?xml version="1.0" encoding="UTF-8"?>
<svg viewBox="0 0 142 70" version="1.1" xmlns="http://www.w3.org/2000/svg" xmlns:xlink="http://www.w3.org/1999/xlink">
    <defs>
        <polygon points="7.44922018 0.18543578 7.44922018 9.09598624 0.240665138 9.09598624 0.240665138 0.18543578 7.44922018 0.18543578"></polygon>
    </defs>
    <g>
        <polygon fill="#FFFFFF" points="81.6406147 29.5712431 84.1452018 29.5712431 84.1452018 40.7937202 81.6406147 40.7937202 76.2942844 33.7616101 76.2942844 40.7937202 73.7896972 40.7937202 73.7896972 29.5712431 76.1337339 29.5712431 81.6406147 36.7960138"></polygon>
        <polygon fill="#FFFFFF" points="86.9064771 40.7937844 86.9064771 29.5713073 89.4110642 29.5713073 89.4110642 38.562133 94.1954679 38.562133 94.1954679 40.7937844"></polygon>
        <polygon fill="#FFFFFF" points="110.31422 33.7295642 107.280138 39.8625917 105.786697 39.8625917 102.768349 33.7295642 102.768349 40.7937844 100.263761 40.7937844 100.263761 29.5713073 103.651376 29.5713073 106.541284 35.736445 109.447569 29.5713073 112.819128 29.5713073 112.819128 40.7937844 110.31422 40.7937844"></polygon>
        <g transform="translate(114.633028, 31.826239)">
            <path d="M5.61933028,5.67626147 L5.61933028,5.25883028 L4.11047706,5.25883028 C3.14717431,5.25883028 2.66552294,5.55873853 2.66552294,6.15791284 C2.66552294,6.46841743 2.78015596,6.70667431 3.01038532,6.87236239 C3.24061468,7.03837156 3.56974312,7.1212156 3.99777064,7.1212156 C4.42579817,7.1212156 4.80309174,6.99020642 5.12997248,6.72786697 C5.45621101,6.46584862 5.61933028,6.11520642 5.61933028,5.67626147 L5.61933028,5.67626147 Z M8.0439633,8.96754587 L5.77988073,8.96754587 L5.77988073,7.92396789 C5.15887156,8.70552752 4.39144037,9.09598624 3.47598165,9.09598624 C2.56116514,9.09598624 1.79277064,8.83107798 1.17208257,8.30126147 C0.551394495,7.77144495 0.240889908,7.06502294 0.240889908,6.18199541 C0.240889908,5.29896789 0.561990826,4.6384633 1.20419266,4.19919725 C1.8463945,3.76025229 2.7239633,3.54094037 3.83722018,3.54094037 L5.63570642,3.54094037 L5.63570642,3.49277523 C5.63570642,2.5725 5.14827523,2.11204128 4.17437615,2.11204128 C3.75694495,2.11204128 3.31543119,2.19488532 2.84983486,2.3608945 C2.38455963,2.52690367 1.99088991,2.73305046 1.66978899,2.97901376 L0.594422018,1.42167431 C1.72855046,0.597729358 3.02387156,0.18543578 4.47942202,0.18543578 C5.52845872,0.18543578 6.38451376,0.447775229 7.04822936,0.972133028 C7.71194495,1.49649083 8.0439633,2.3262156 8.0439633,3.46066514 L8.0439633,8.96754587 Z" fill="#FFFFFF"></path>
            <path d="M12.6192661,4.65683028 C12.6192661,5.35811468 12.8141743,5.93063761 13.2052752,6.37472018 C13.5957339,6.81880275 14.0696789,7.04100459 14.6261468,7.04100459 C15.1822936,7.04100459 15.6697248,6.81880275 16.087156,6.37472018 C16.5045872,5.93063761 16.7133028,5.36068349 16.7133028,4.6645367 C16.7133028,3.96903211 16.5097248,3.38591284 16.103211,2.9148578 C15.6963761,2.44380275 15.2092661,2.20843578 14.6422018,2.20843578 C14.0744954,2.20843578 13.5957339,2.44123394 13.2052752,2.90683028 C12.8141743,3.37242661 12.6192661,3.95586697 12.6192661,4.65683028 M15.2683486,0.1855 C16.2743578,0.1855 17.1708716,0.605821101 17.9575688,1.4458211 C18.7442661,2.2861422 19.1376147,3.34288532 19.1376147,4.61669266 C19.1376147,5.8905 18.7442661,6.95527064 17.9575688,7.81164679 C17.1708716,8.66802294 16.2502752,9.09605046 15.1957798,9.09605046 C14.1416055,9.09605046 13.293578,8.67348165 12.6513761,7.82770183 L12.6513761,12.082289 L10.2431193,12.082289 L10.2431193,0.329674312 L12.6513761,0.329674312 L12.6513761,1.29297706 C13.3895872,0.554766055 14.2620183,0.1855 15.2683486,0.1855" fill="#FFFFFF"></path>
            <g transform="translate(19.908257, 0.000000)">
                <mask fill="white">
                    <use xlink:href="#path-1"></use>
                </mask>
                <g></g>
                <path d="M7.44938073,6.27832569 C7.44938073,7.12924312 7.13630734,7.81158257 6.51016055,8.32534404 C5.88401376,8.8391055 5.08928899,9.09598624 4.12598624,9.09598624 C3.4837844,9.09598624 2.81461009,8.98071101 2.1191055,8.75080275 C1.42327982,8.52057339 0.797133028,8.18084862 0.240665138,7.73130734 L1.30061927,6.22213303 C2.19938073,6.91795872 3.15722477,7.26571101 4.17415138,7.26571101 C4.48465596,7.26571101 4.73061927,7.20438073 4.91300459,7.08107798 C5.09474771,6.95809633 5.18561927,6.79465596 5.18561927,6.59139908 C5.18561927,6.3881422 5.05974771,6.20094037 4.80832569,6.02947248 C4.55658257,5.85832569 4.19277523,5.69777523 3.71658257,5.5478211 C3.24038991,5.39818807 2.87626147,5.26942661 2.62516055,5.1625 C2.37309633,5.05557339 2.08699541,4.90048165 1.7658945,4.69690367 C1.11309633,4.29038991 0.786536697,3.68832569 0.786536697,2.89071101 C0.786536697,2.09341743 1.10763761,1.44318807 1.74983945,0.940022936 C2.39204128,0.437178899 3.22144495,0.18543578 4.23837156,0.18543578 C5.25529817,0.18543578 6.27190367,0.528050459 7.28883028,1.21295872 L6.38974771,2.8184633 C5.64029817,2.30470183 4.89405963,2.0478211 4.15038991,2.0478211 C3.40607798,2.0478211 3.03424312,2.25139908 3.03424312,2.65791284 C3.03424312,2.88268349 3.15176606,3.05928899 3.38777523,3.18772936 C3.6228211,3.31616972 4.01360092,3.46612385 4.55947248,3.63727064 C5.10534404,3.80873853 5.49323394,3.93974771 5.7234633,4.03061927 C5.95369266,4.12149083 6.22919725,4.26341743 6.55029817,4.45607798 C7.14947248,4.82020642 7.44938073,5.42740826 7.44938073,6.27832569" fill="#FFFFFF" mask="url(#mask-2)"></path>
            </g>
        </g>
        <polygon fill="#FFFFFF" points="41.4123853 0 43.9811927 3.87279817 48.6557798 3.87279817 46.0866514 0"></polygon>
        <polygon fill="#FFFFFF" points="46.0868119 0 48.6556193 3.87279817 53.3302064 3.87279817 50.761078 0"></polygon>
        <polygon fill="#FFFFFF" points="55.9036055 7.74578899 51.2290183 7.74578899 48.660211 3.87266972 53.3347982 3.87266972"></polygon>
        <polygon fill="#FFFFFF" points="60.5782248 7.74578899 55.9036376 7.74578899 53.3348303 3.87266972 58.0094174 3.87266972"></polygon>
        <polygon fill="#FFFFFF" points="46.554367 7.74578899 41.8797798 7.74578899 39.3109725 3.87266972 43.9855596 3.87266972"></polygon>
        <polygon fill="#FFFFFF" points="51.2288257 7.74578899 46.5542385 7.74578899 43.9854312 3.87266972 48.6600183 3.87266972"></polygon>
        <polygon fill="#FFFFFF" points="37.2051284 7.74578899 32.5305413 7.74578899 29.9617339 3.87266972 34.6363211 3.87266972"></polygon>
        <polygon fill="#FFFFFF" points="58.4758807 11.6187798 53.8012936 11.6187798 51.2324862 7.74566055 55.9070734 7.74566055"></polygon>
        <polygon fill="#FFFFFF" points="63.1505 11.6187798 58.4759128 11.6187798 55.9071055 7.74566055 60.5816927 7.74566055"></polygon>
        <polygon fill="#FFFFFF" points="49.1266422 11.6187798 44.452055 11.6187798 41.8832477 7.74566055 46.5578349 7.74566055"></polygon>
        <polygon fill="#FFFFFF" points="53.8011009 11.6187798 49.1265138 11.6187798 46.5577064 7.74566055 51.2322936 7.74566055"></polygon>
        <polygon fill="#FFFFFF" points="44.4518624 11.6187798 39.7772752 11.6187798 37.2084679 7.74566055 41.883055 7.74566055"></polygon>
        <polygon fill="#FFFFFF" points="61.0481239 15.493922 56.3735367 15.493922 53.8047294 11.6208028 58.4793165 11.6208028"></polygon>
        <polygon fill="#FFFFFF" points="65.7225826 15.493922 61.0479954 15.493922 58.4791881 11.6208028 63.1537752 11.6208028"></polygon>
        <polygon fill="#FFFFFF" points="51.6988853 15.493922 47.0242982 15.493922 44.4554908 11.6208028 49.130078 11.6208028"></polygon>
        <polygon fill="#FFFFFF" points="56.373344 15.493922 51.6987569 15.493922 49.1299495 11.6208028 53.8045367 11.6208028"></polygon>
        <polygon fill="#FFFFFF" points="42.3494862 15.493922 37.6748991 15.493922 35.1060917 11.6208028 39.7806789 11.6208028"></polygon>
        <polygon fill="#FFFFFF" points="47.023945 15.493922 42.3493578 15.493922 39.7805505 11.6208028 44.4551376 11.6208028"></polygon>
        <polygon fill="#FFFFFF" points="63.6147477 19.3668807 58.9401606 19.3668807 56.3713532 15.4937615 61.0459404 15.4937615"></polygon>
        <polygon fill="#FFFFFF" points="54.2655092 19.3668807 49.590922 19.3668807 47.0221147 15.4937615 51.6967018 15.4937615"></polygon>
        <polygon fill="#FFFFFF" points="58.9399679 19.3668807 54.2653807 19.3668807 51.6965734 15.4937615 56.3711606 15.4937615"></polygon>
        <polygon fill="#FFFFFF" points="44.9161101 19.3668807 40.2415229 19.3668807 37.6727156 15.4937615 42.3473028 15.4937615"></polygon>
        <polygon fill="#FFFFFF" points="49.5905688 19.3668807 44.9159817 19.3668807 42.3471743 15.4937615 47.0217615 15.4937615"></polygon>
        <polygon fill="#FFFFFF" points="61.9673716 30.9873624 57.2927844 30.9873624 54.7239771 27.1142431 59.3985642 27.1142431"></polygon>
        <polygon fill="#FFFFFF" points="52.618133 30.9873624 47.9435459 30.9873624 45.3747385 27.1142431 50.0493257 27.1142431"></polygon>
        <polygon fill="#FFFFFF" points="57.2925917 30.9873624 52.6180046 30.9873624 50.0491972 27.1142431 54.7237844 27.1142431"></polygon>
        <polygon fill="#FFFFFF" points="43.2688945 30.9873624 38.5943073 30.9873624 36.0255 27.1142431 40.7000872 27.1142431"></polygon>
        <polygon fill="#FFFFFF" points="47.9433532 30.9873624 43.2687661 30.9873624 40.6999587 27.1142431 45.3745459 27.1142431"></polygon>
        <polygon fill="#FFFFFF" points="55.1864587 34.86 50.5118716 34.86 47.9430642 30.9872018 52.6176514 30.9872018"></polygon>
        <polygon fill="#FFFFFF" points="59.8609495 34.86 55.1863624 34.86 52.617555 30.9872018 57.2921422 30.9872018"></polygon>
        <polygon fill="#FFFFFF" points="45.8370596 34.86 41.1624725 34.86 38.5936651 30.9872018 43.2682523 30.9872018"></polygon>
        <polygon fill="#FFFFFF" points="50.5116789 34.86 45.8370917 34.86 43.2682844 30.9872018 47.9428716 30.9872018"></polygon>
        <polygon fill="#FFFFFF" points="36.4879817 34.86 31.8133945 34.86 29.2445872 30.9872018 33.9191743 30.9872018"></polygon>
        <polygon fill="#FFFFFF" points="41.1624404 34.86 36.4878532 34.86 33.9190459 30.9872018 38.593633 30.9872018"></polygon>
        <polygon fill="#FFFFFF" points="27.1385826 34.86 22.4639954 34.86 19.8951881 30.9872018 24.5697752 30.9872018"></polygon>
        <polygon fill="#FFFFFF" points="31.8132018 34.86 27.1386147 34.86 24.5698073 30.9872018 29.2443945 30.9872018"></polygon>
        <polygon fill="#FFFFFF" points="57.7516697 38.7329908 53.0770826 38.7329908 50.5082752 34.8598716 55.1828624 34.8598716"></polygon>
        <polygon fill="#FFFFFF" points="48.4024312 38.7329908 43.727844 38.7329908 41.1590367 34.8598716 45.8336239 34.8598716"></polygon>
        <polygon fill="#FFFFFF" points="53.0768899 38.7329908 48.4023028 38.7329908 45.8334954 34.8598716 50.5080826 34.8598716"></polygon>
        <polygon fill="#FFFFFF" points="39.0531927 38.7329908 34.3786055 38.7329908 31.8097982 34.8598716 36.4843853 34.8598716"></polygon>
        <polygon fill="#FFFFFF" points="43.7276514 38.7329908 39.0530642 38.7329908 36.4842569 34.8598716 41.158844 34.8598716"></polygon>
        <polygon fill="#FFFFFF" points="29.7039541 38.7329908 25.029367 38.7329908 22.4605596 34.8598716 27.1351468 34.8598716"></polygon>
        <polygon fill="#FFFFFF" points="34.3784128 38.7329908 29.7038257 38.7329908 27.1350183 34.8598716 31.8096055 34.8598716"></polygon>
        <polygon fill="#FFFFFF" points="20.3547156 38.7329908 15.6801284 38.7329908 13.1113211 34.8598716 17.7859083 34.8598716"></polygon>
        <polygon fill="#FFFFFF" points="25.0291743 38.7329908 20.3545872 38.7329908 17.7857798 34.8598716 22.460367 34.8598716"></polygon>
        <polygon fill="#FFFFFF" points="50.9688945 42.6059495 46.2943073 42.6059495 43.7255 38.7328303 48.4000872 38.7328303"></polygon>
        <polygon fill="#FFFFFF" points="55.6433532 42.6059495 50.9687661 42.6059495 48.3999587 38.7328303 53.0745459 38.7328303"></polygon>
        <polygon fill="#FFFFFF" points="41.6194954 42.6059495 36.9449083 42.6059495 34.3761009 38.7328303 39.0506881 38.7328303"></polygon>
        <polygon fill="#FFFFFF" points="46.2939541 42.6059495 41.619367 42.6059495 39.0505596 38.7328303 43.7251468 38.7328303"></polygon>
        <polygon fill="#FFFFFF" points="32.2704174 42.6059495 27.5958303 42.6059495 25.0270229 38.7328303 29.7016101 38.7328303"></polygon>
        <polygon fill="#FFFFFF" points="36.9448761 42.6059495 32.270289 42.6059495 29.7014817 38.7328303 34.3760688 38.7328303"></polygon>
        <polygon fill="#FFFFFF" points="22.9210183 42.6059495 18.2464312 42.6059495 15.6776239 38.7328303 20.352211 38.7328303"></polygon>
        <polygon fill="#FFFFFF" points="18.2455963 42.6059495 13.5710092 42.6059495 11.0022018 38.7328303 15.676789 38.7328303"></polygon>
        <polygon fill="#FFFFFF" points="27.5954771 42.6059495 22.9208899 42.6059495 20.3520826 38.7328303 25.0266697 38.7328303"></polygon>
        <polygon fill="#FFFFFF" points="46.7522294 50.3515459 42.0776422 50.3515459 39.5088349 46.4787477 44.183422 46.4787477"></polygon>
        <polygon fill="#FFFFFF" points="37.4029908 50.3515459 32.7284037 50.3515459 30.1595963 46.4787477 34.8341835 46.4787477"></polygon>
        <polygon fill="#FFFFFF" points="42.0774495 50.3515459 37.4028624 50.3515459 34.834055 46.4787477 39.5086422 46.4787477"></polygon>
        <polygon fill="#FFFFFF" points="49.3208761 54.2245367 44.646289 54.2245367 42.0774817 50.3514174 46.7520688 50.3514174"></polygon>
        <polygon fill="#FFFFFF" points="39.9716376 54.2245367 35.2970505 54.2245367 32.7282431 50.3514174 37.4028303 50.3514174"></polygon>
        <polygon fill="#FFFFFF" points="44.6461284 54.2245367 39.9715413 54.2245367 37.4027339 50.3514174 42.0773211 50.3514174"></polygon>
        <polygon fill="#FFFFFF" points="28.0537523 50.3515459 23.3791651 50.3515459 20.8103578 46.4787477 25.484945 46.4787477"></polygon>
        <polygon fill="#FFFFFF" points="32.728211 50.3515459 28.0536239 50.3515459 25.4848165 46.4787477 30.1594037 46.4787477"></polygon>
        <polygon fill="#FFFFFF" points="18.7045138 50.3515459 14.0299266 50.3515459 11.4611193 46.4787477 16.1357064 46.4787477"></polygon>
        <polygon fill="#FFFFFF" points="14.0291239 50.3515459 9.3545367 50.3515459 6.78572936 46.4787477 11.4603165 46.4787477"></polygon>
        <polygon fill="#FFFFFF" points="23.3789725 50.3515459 18.7043853 50.3515459 16.135578 46.4787477 20.8101651 46.4787477"></polygon>
        <polygon fill="#FFFFFF" points="30.6172294 54.2245367 25.9426422 54.2245367 23.3738349 50.3514174 28.048422 50.3514174"></polygon>
        <polygon fill="#FFFFFF" points="35.2916881 54.2245367 30.6171009 54.2245367 28.0482936 50.3514174 32.7228807 50.3514174"></polygon>
        <polygon fill="#FFFFFF" points="42.5365275 58.0974954 37.8619404 58.0974954 35.293133 54.2243761 39.9677202 54.2243761"></polygon>
        <polygon fill="#FFFFFF" points="45.1219679 61.9704541 40.4473807 61.9704541 37.8785734 58.0973349 42.5531606 58.0973349"></polygon>
        <polygon fill="#FFFFFF" points="47.6859266 65.8431239 43.0113394 65.8431239 40.4425321 61.9703257 45.1171193 61.9703257"></polygon>
        <polygon fill="#FFFFFF" points="38.3331881 65.8430917 40.9016743 69.716211 45.5765826 69.716211 43.0074541 65.8430917"></polygon>
        <polygon fill="#FFFFFF" points="47.2109862 58.0974954 42.5363991 58.0974954 39.9675917 54.2243761 44.6421789 54.2243761"></polygon>
        <polygon fill="#FFFFFF" points="33.1821193 58.0974954 28.5075321 58.0974954 25.9387248 54.2243761 30.6133119 54.2243761"></polygon>
        <polygon fill="#FFFFFF" points="37.856578 58.0974954 33.1819908 58.0974954 30.6131835 54.2243761 35.2877706 54.2243761"></polygon>
        <polygon fill="#FFFFFF" points="0 50.3514495 2.56880734 54.2245688 7.2433945 54.2245688 4.67426606 50.3514495"></polygon>
        <polygon fill="#FFFFFF" points="14.4866284 58.0974954 9.81204128 58.0974954 7.24323394 54.2243761 11.9178211 54.2243761"></polygon>
        <polygon fill="#FFFFFF" points="16.593211 54.2245367 11.9186239 54.2245367 9.34981651 50.3514174 14.0244037 50.3514174"></polygon>
        <polygon fill="#FFFFFF" points="48.8626009 46.4789083 44.1880138 46.4789083 41.6192064 42.605789 46.2937936 42.605789"></polygon>
        <polygon fill="#FFFFFF" points="39.5132018 46.4789083 34.8386147 46.4789083 32.2698073 42.605789 36.9443945 42.605789"></polygon>
        <polygon fill="#FFFFFF" points="44.1876606 46.4789083 39.5130734 46.4789083 36.9442661 42.605789 41.6188532 42.605789"></polygon>
        <polygon fill="#FFFFFF" points="30.1641239 46.4789083 25.4895367 46.4789083 22.9207294 42.605789 27.5953165 42.605789"></polygon>
        <polygon fill="#FFFFFF" points="34.8385826 46.4789083 30.1639954 46.4789083 27.5951881 42.605789 32.2697752 42.605789"></polygon>
        <polygon fill="#FFFFFF" points="16.1393028 46.4789083 11.4647156 46.4789083 8.89590826 42.605789 13.5704954 42.605789"></polygon>
        <polygon fill="#FFFFFF" points="25.4891835 46.4789083 20.8145963 46.4789083 18.245789 42.605789 22.9203761 42.605789"></polygon>
        <polygon fill="#FFFFFF" points="33.9191743 30.9867202 29.2445872 30.9867202 26.6757798 27.113922 31.350367 27.113922"></polygon>
        <polygon fill="#FFFFFF" points="29.2443945 30.9867202 24.5698073 30.9867202 22.001 27.113922 26.6755872 27.113922"></polygon>
        <polygon fill="#FFFFFF" points="31.3514587 27.1140826 26.6768716 27.1140826 24.1080642 23.2409633 28.7826514 23.2409633"></polygon>
        <polygon fill="#FFFFFF" points="26.6766789 27.1140826 22.0020917 27.1140826 19.4332844 23.2409633 24.1078716 23.2409633"></polygon>
        <polygon  fill="#FFFFFF" points="33.4594862 23.2398716 28.7848991 23.2398716 26.2160917 19.3667523 30.8906789 19.3667523"></polygon>
        <polygon  fill="#FFFFFF" points="28.7847064 23.2398716 24.1101193 23.2398716 21.5413119 19.3667523 26.2158991 19.3667523"></polygon>
        <polygon  fill="#FFFFFF" points="35.5668716 19.3668807 30.8922844 19.3668807 28.3234771 15.4937615 32.9980642 15.4937615"></polygon>
        <polygon  fill="#FFFFFF" points="33.0002477 15.493922 28.3256606 15.493922 25.7568532 11.6208028 30.4314404 11.6208028"></polygon>
        <polygon  fill="#FFFFFF" points="30.8920917 19.3668807 26.2175046 19.3668807 23.6486972 15.4937615 28.3232844 15.4937615"></polygon>
        <polygon  fill="#FFFFFF" points="56.8325826 23.2398716 52.1579954 23.2398716 49.5891881 19.3667523 54.2637752 19.3667523"></polygon>
        <polygon  fill="#FFFFFF" points="61.5070413 23.2398716 56.8324541 23.2398716 54.2636468 19.3667523 58.9382339 19.3667523"></polygon>
        <polygon  fill="#FFFFFF" points="47.483344 23.2398716 42.8087569 23.2398716 40.2399495 19.3667523 44.9145367 19.3667523"></polygon>
        <polygon  fill="#FFFFFF" points="52.1578028 23.2398716 47.4832156 23.2398716 44.9144083 19.3667523 49.5889954 19.3667523"></polygon>
        <polygon  fill="#FFFFFF" points="54.7256789 27.1150138 50.0510917 27.1150138 47.4822844 23.2418945 52.1568716 23.2418945"></polygon>
        <polygon  fill="#FFFFFF" points="59.4001376 27.1150138 54.7255505 27.1150138 52.1567431 23.2418945 56.8313303 23.2418945"></polygon>
        <polygon  fill="#FFFFFF" points="45.3762798 27.1150138 40.7016927 27.1150138 38.1328853 23.2418945 42.8074725 23.2418945"></polygon>
        <polygon  fill="#FFFFFF" points="50.0508991 27.1150138 45.3763119 27.1150138 42.8075046 23.2418945 47.4820917 23.2418945"></polygon>
    </g>
</svg>
