<?xml version="1.0" encoding="UTF-8"?>
<svg viewBox="0 0 90 70" version="1.1" xmlns="http://www.w3.org/2000/svg" xmlns:xlink="http://www.w3.org/1999/xlink">
    <g>
        <polyline fill="#007996" points="2.605 0.278 1.994 6.402 2.619 6.402 4.743 3.68 5.804 3.68 3.396 6.796 5.491 9.995 4.266 9.995 2.456 7.15 1.925 7.15 1.654 9.995 0.646 9.995 1.612 0.359 2.605 0.278"></polyline>
        <path d="M11.207,9.967 L10.227,9.995 L10.2,8.661 C8.988,9.831 8.621,10.049 7.981,10.049 C7.205,10.049 6.58,9.464 6.58,7.885 C6.58,5.177 7.696,3.558 9.533,3.558 C10.131,3.558 10.935,3.68 11.574,3.871 L11.18,7.926 L11.207,9.967 Z M10.526,4.551 C10.172,4.47 9.737,4.401 9.411,4.401 C8.227,4.401 7.614,5.626 7.614,7.776 C7.614,8.743 7.9,9.11 8.294,9.11 C8.662,9.11 9.043,8.811 10.213,7.695 L10.526,4.551 L10.526,4.551 Z" fill="#007996"></path>
        <path d="M15.929,3.558 C16.269,3.558 16.624,3.598 16.991,3.68 L17.331,0.346 L18.324,0.278 L17.576,7.926 L17.603,9.967 L16.624,9.995 L16.595,8.661 C15.385,9.831 15.018,10.049 14.377,10.049 C13.601,10.049 12.976,9.464 12.976,7.885 C12.976,5.177 14.091,3.558 15.929,3.558 Z M14.69,9.11 C15.058,9.11 15.439,8.811 16.609,7.695 L16.923,4.551 C16.569,4.47 16.133,4.401 15.807,4.401 C14.622,4.401 14.01,5.626 14.01,7.776 C14.01,8.743 14.295,9.11 14.69,9.11 L14.69,9.11 Z" fill="#007996"></path>
        <path d="M23.999,9.967 L23.019,9.995 L22.993,8.661 C21.781,9.831 21.413,10.049 20.774,10.049 C19.998,10.049 19.372,9.464 19.372,7.885 C19.372,5.177 20.487,3.558 22.325,3.558 C22.923,3.558 23.726,3.68 24.367,3.871 L23.973,7.926 L23.999,9.967 Z M23.318,4.551 C22.964,4.47 22.529,4.401 22.203,4.401 C21.018,4.401 20.406,5.626 20.406,7.776 C20.406,8.743 20.691,9.11 21.086,9.11 C21.454,9.11 21.835,8.811 23.006,7.695 L23.318,4.551 L23.318,4.551 Z"  fill="#007996"></path>
        <path d="M29.007,4.551 C28.544,4.415 28.164,4.347 27.754,4.347 C27.156,4.347 26.912,4.701 26.912,5.123 C26.912,5.572 27.034,5.831 27.673,6.374 C28.871,7.382 29.061,7.736 29.061,8.376 C29.061,9.382 28.354,10.076 27.143,10.076 C26.503,10.076 25.864,9.927 25.333,9.6 L25.618,8.811 C26.15,9.069 26.734,9.219 27.197,9.219 C27.81,9.219 28.095,8.92 28.095,8.484 C28.095,8.062 27.96,7.831 27.143,7.191 C26.203,6.456 25.932,5.939 25.932,5.191 C25.932,4.347 26.53,3.53 27.741,3.53 C28.34,3.53 28.775,3.598 29.211,3.762 L29.007,4.551"  fill="#007996"></path>
        <path d="M32.178,3.68 L33.784,3.68 L33.689,4.483 L32.11,4.483 L31.77,7.885 C31.73,8.226 31.73,8.566 31.73,8.77 C31.73,9.097 31.851,9.165 32.11,9.165 C32.328,9.165 32.763,9.069 33.348,8.865 L33.525,9.627 C32.818,9.94 32.259,10.063 31.702,10.063 C31.021,10.063 30.667,9.709 30.667,9.002 C30.667,8.756 30.681,8.484 30.722,8.035 L31.089,4.47 L30.178,4.442 L30.246,3.748 L31.185,3.68 L31.511,1.502 L32.354,1.475 L32.178,3.68"  fill="#007996"></path>
        <path d="M35.704,7.042 C35.689,7.205 35.689,7.354 35.689,7.463 C35.689,8.797 36.111,9.205 36.859,9.205 C37.335,9.205 37.961,9.069 38.969,8.552 L39.255,9.328 C38.193,9.873 37.459,10.076 36.655,10.076 C35.39,10.076 34.655,9.301 34.655,7.6 C34.655,5.177 35.662,3.503 37.39,3.503 C38.56,3.503 39.105,4.115 39.105,5.191 C39.105,5.531 39.023,6.293 38.887,6.851 L35.704,7.042 Z M38.071,6.116 C38.125,5.817 38.152,5.449 38.152,5.286 C38.152,4.619 37.853,4.306 37.268,4.306 C36.479,4.306 35.988,5.027 35.798,6.266 L38.071,6.116 L38.071,6.116 Z"  fill="#007996"></path>
        <path d="M41.637,9.995 L40.616,9.995 L41.242,3.667 L42.126,3.667 L42.005,5.272 C43.039,3.748 43.216,3.571 43.76,3.571 C44.046,3.571 44.264,3.612 44.468,3.667 L44.304,4.578 C44.114,4.564 43.965,4.551 43.8,4.551 C43.419,4.551 43.256,4.755 41.95,6.538 L41.637,9.995" fill="#007996"></path>
        <polyline  fill="#007996" points="51.967 43.316 64.35 1.481 54.736 1.481 37.721 58.933 51.967 43.316"></polyline>
        <polyline   fill="#004C80" points="66.234 27.623 59.75 34.731 78.785 69.496 89.938 69.496 66.234 27.623"></polyline>
    </g>
</svg>
