<?xml version="1.0" encoding="UTF-8" standalone="no"?>
<svg
   xmlns:dc="http://purl.org/dc/elements/1.1/"
   xmlns:cc="http://creativecommons.org/ns#"
   xmlns:rdf="http://www.w3.org/1999/02/22-rdf-syntax-ns#"
   xmlns:svg="http://www.w3.org/2000/svg"
   xmlns="http://www.w3.org/2000/svg"
   xml:space="preserve"
   enable-background="new 0 0 2437.799 6122.84"
   viewBox="0 0 2347.298 2437.8011"
   height="2437.801"
   width="2347.2981"
   y="0px"
   x="0px"
   id="Capa_1"
   version="1.1"><metadata
   id="metadata9"><rdf:RDF><cc:Work
       rdf:about=""><dc:format>image/svg+xml</dc:format><dc:type
         rdf:resource="http://purl.org/dc/dcmitype/StillImage" /><dc:title></dc:title></cc:Work></rdf:RDF></metadata><defs
   id="defs7" />
<path
   style="stroke-width:0.57999325"
   id="path2"
   d="m 1846.9179,1880.6604 -396.655,-412.5121 c 101.1729,-101.4658 163.8516,-241.3457 163.8516,-395.6146 0,-309.12367 -251.4636,-560.58729 -560.5873,-560.58729 -309.12366,0 -560.5867,251.46362 -560.5867,560.58729 0,309.1242 251.46362,560.5873 560.5867,560.5873 135.6889,0 260.2192,-48.5043 357.281,-128.9882 l 397.6168,413.5259 c 5.2321,5.4728 12.2262,8.1959 19.247,8.1959 6.6741,0 13.3208,-2.4829 18.4995,-7.4483 10.6232,-10.2235 10.9439,-27.1211 0.7464,-37.7459 z M 1053.5266,1579.732 c -279.67912,0 -507.19715,-227.518 -507.19715,-507.1977 0,-279.67975 227.51803,-507.19777 507.19715,-507.19777 279.6797,0 507.1983,227.51802 507.1983,507.19777 0,279.6797 -227.5452,507.1977 -507.1983,507.1977 z" />
</svg>