<?xml version="1.0" encoding="utf-8"?>
<!-- Generator: Adobe Illustrator 18.1.0, SVG Export Plug-In . SVG Version: 6.00 Build 0)  -->
<svg version="1.2" baseProfile="tiny" xmlns="http://www.w3.org/2000/svg" xmlns:xlink="http://www.w3.org/1999/xlink" x="0px"
	 y="0px" width="64px" height="64px" viewBox="0 0 64 64" xml:space="preserve">
<g id="_x36_4px_Boxes">
	<rect fill="none" width="64" height="64"/>
</g>
<g id="Production">
	<g>
		<path d="M32,4c-10.2401,0-17.9623,7.7265-17.9623,17.9731c0,5.9628,2.8771,10.4182,6.2089,15.5772
			c3.2369,5.0109,6.9053,11.6818,9.1895,20.4683C29.7399,59.1852,30.794,60,32,60s2.2601-0.8148,2.5638-1.9813
			c2.2842-8.7866,5.9526-15.4574,9.1895-20.4683c3.3318-5.159,6.2089-9.6144,6.2089-15.5772C49.9623,11.7265,42.2401,4,32,4z
			 M32,32.2c-5.6333,0-10.2-4.5668-10.2-10.2c0-5.6334,4.5667-10.2,10.2-10.2S42.2,16.3666,42.2,22
			C42.2,27.6332,37.6333,32.2,32,32.2z"/>
		<circle cx="32" cy="22" r="5"/>
	</g>
</g>
</svg>
